<?xml version="1.0" encoding="UTF-8"?>
<svg id="SvgjsSvg1060" xmlns="http://www.w3.org/2000/svg" version="1.1" viewBox="0 0 875.9 875.8">
  <!-- Generator: Adobe Illustrator 30.0.0, SVG Export Plug-In . SVG Version: 2.1.1 Build 123)  -->
  <defs>
    <style>
      .st0 {
        fill: #ba181b;
      }
    </style>
  </defs>
  <g id="SvgjsG1059">
    <g>
      <path class="st0" d="M244.1,335.4c-27,0-47.8-7.5-62.6-22.7-14.8-15.1-22.2-36.8-22.2-65.1s7.9-47.7,23.7-64.1c15.8-16.4,36.1-24.7,61.1-24.7s48,7.7,63.1,23.2c15.1,15.5,22.7,37.3,22.7,65.6s-7.9,46.7-23.7,63.1c-15.8,16.4-36.5,24.7-62.1,24.7h0ZM244.1,703.2c-27,0-47.8-7.6-62.6-22.7-14.8-15.1-22.2-36.8-22.2-65.1s7.9-47.7,23.7-64.1c15.8-16.4,36.2-24.7,61.2-24.7s48,7.7,63.1,23.2c15.1,15.5,22.7,37.3,22.7,65.6s-7.9,46.7-23.7,63.1c-15.8,16.4-36.5,24.7-62.1,24.7h0Z"/>
      <path class="st0" d="M469,875.8l-88.8-83.8c60.5-42.1,105.5-94,135.1-155.8,29.6-61.8,44.4-127.9,44.4-198.2s-14.8-136.4-44.4-198.2c-29.6-61.8-74.6-113.8-135.1-155.8L470,0c80.2,50,141.4,112.4,183.5,187.4,42.1,75,63.1,158.5,63.1,250.5s-21.2,174.8-63.6,250-103.7,137.9-184,187.9h0Z"/>
    </g>
  </g>
</svg>