<?xml version="1.0" encoding="UTF-8"?>
<svg id="Layer_2" data-name="Layer 2" xmlns="http://www.w3.org/2000/svg" viewBox="0 0 557.25 875.84">
  <defs>
    <style>
      .cls-1 {
        fill: #ba181b;
      }
    </style>
  </defs>
  <g id="Layer_1-2" data-name="Layer 1">
    <g>
      <path class="cls-1" d="M84.82,335.35c-26.97,0-47.84-7.55-62.63-22.69C7.4,297.54,0,275.84,0,247.56c0-26.29,7.89-47.67,23.67-64.11,15.78-16.43,36.15-24.66,61.15-24.66,26.95,0,47.99,7.74,63.12,23.18,15.12,15.46,22.69,37.33,22.69,65.59,0,25.64-7.89,46.7-23.67,63.12-15.78,16.44-36.49,24.66-62.14,24.66ZM84.82,703.24c-26.97,0-47.84-7.57-62.63-22.69-14.79-15.12-22.19-36.82-22.19-65.1,0-26.29,7.89-47.67,23.67-64.11,15.78-16.43,36.15-24.66,61.15-24.66,26.95,0,47.99,7.74,63.12,23.18,15.12,15.46,22.69,37.33,22.69,65.59,0,25.64-7.89,46.7-23.67,63.12-15.78,16.43-36.49,24.66-62.14,24.66Z"/>
      <path class="cls-1" d="M309.69,875.84l-88.77-83.84c60.49-42.09,105.54-94.04,135.12-155.84,29.59-61.8,44.38-127.88,44.38-198.25s-14.79-136.43-44.38-198.25c-29.59-61.8-74.64-113.75-135.12-155.84L310.68,0c80.21,49.98,141.37,112.44,183.45,187.4,42.07,74.96,63.12,158.47,63.12,250.52s-21.21,174.75-63.62,250.03-103.73,137.91-183.95,187.89Z"/>
    </g>
  </g>
</svg>