<?xml version="1.0" encoding="UTF-8"?>
<svg id="Layer_2" data-name="Layer 2" xmlns="http://www.w3.org/2000/svg" viewBox="0 0 1080 635.4">
  <defs>
    <style>
      .cls-1 {
        fill: #ba181b;
      }
    </style>
  </defs>
  <g id="Layer_1-2" data-name="Layer 1">
    <g>
      <path class="cls-1" d="M262.56,635.4c-40.26,0-76.58-4.81-108.96-14.44-32.38-9.63-61.13-23.63-86.21-42.01-25.09-18.38-47.56-40.11-67.39-65.21l90.15-102.4c29.17,39.1,58.49,65.35,87.96,78.77,29.46,13.43,59.95,20.13,91.46,20.13,15.75,0,30.04-2.04,42.88-6.13,12.83-4.07,22.76-10.07,29.75-17.94,7-7.88,10.51-17.64,10.51-29.31,0-8.75-2.19-16.63-6.56-23.63-4.37-7-10.36-13.13-17.94-18.38-7.59-5.25-16.63-10.07-27.13-14.44-10.5-4.38-21.59-8.17-33.26-11.38-11.68-3.2-23.63-5.98-35.89-8.32-33.84-7.58-63.32-16.92-88.4-28.01-25.09-11.08-45.95-24.64-62.58-40.69-16.63-16.04-29.04-34.43-37.2-55.14-8.18-20.7-12.25-43.9-12.25-69.58,0-27.42,6.26-52.65,18.82-75.71,12.54-23.04,29.46-42.88,50.76-59.51,21.3-16.63,45.95-29.46,73.96-38.51C203.05,4.52,232.22,0,262.56,0c40.26,0,74.83,4.24,103.71,12.69,28.89,8.46,53.68,20.57,74.39,36.32,20.7,15.75,38.36,34.72,52.95,56.89l-91.9,88.4c-12.25-15.16-25.53-27.71-39.82-37.64-14.3-9.91-29.47-17.5-45.51-22.76-16.05-5.25-32.53-7.88-49.45-7.88s-32.53,2.19-45.07,6.56c-12.55,4.37-22.32,10.51-29.32,18.38-7,7.88-10.5,17.37-10.5,28.44,0,9.93,2.91,18.38,8.75,25.38,5.82,7,13.7,13.28,23.63,18.82,9.91,5.55,21.29,10.21,34.13,14,12.83,3.8,26.25,6.86,40.26,9.19,32.08,6.43,61.11,14.88,87.08,25.38,25.96,10.51,48.43,23.34,67.4,38.51,18.95,15.18,33.54,33.13,43.76,53.83,10.2,20.71,15.32,44.79,15.32,72.2,0,42.6-10.37,78.63-31.07,108.09-20.71,29.47-49.01,51.93-84.89,67.39-35.89,15.45-77.17,23.2-123.84,23.2Z"/>
      <path class="cls-1" d="M614.39,626.65V14h264.32c38.51,0,72.78,8.75,102.84,26.25,30.05,17.51,53.96,41.44,71.76,71.77,17.79,30.34,26.7,64.48,26.7,102.4s-8.9,75.13-26.7,106.34c-17.8,31.22-41.72,55.88-71.76,73.96-30.06,18.09-64.33,27.13-102.84,27.13h-115.53v204.8h-148.79ZM760.54,291.44h97.15c12.83,0,24.51-3.2,35.01-9.63,10.51-6.41,18.95-15.16,25.38-26.25,6.42-11.08,9.63-23.92,9.63-38.51s-3.21-28.01-9.63-38.51c-6.43-10.51-14.87-18.67-25.38-24.51-10.5-5.83-22.18-8.75-35.01-8.75h-97.15v146.16Z"/>
    </g>
  </g>
</svg>